<svg xmlns="http://www.w3.org/2000/svg" xmlns:xlink="http://www.w3.org/1999/xlink" viewBox="0 0 177 23" version="1.1" width="100px" height="13px">
    <!-- Generator: Sketch 52.6 (67491) - http://www.bohemiancoding.com/sketch -->
    <title>honda</title>
    <desc>Created with Sketch.</desc>
    <g id="honda" stroke="none" stroke-width="1" fill="none" fill-rule="evenodd" fill-color-id="-1" stroke-color-id="-1" recolor-fill="true" recolor-stroke="true">
        <g fill="#FFFFFFFF" fill-rule="nonzero" id="Shape" fill-color-id="0" stroke-color-id="-1" recolor-fill="true" recolor-stroke="true">
            <path d="M53.711,22.064 C42.481,22.064 37.455,17.726 37.455,11.3 C37.455,5.073 42.48,0.692 53.711,0.692 C64.897,0.692 69.923,5.051 69.923,11.3 C69.923,17.727 64.919,22.064 53.711,22.064 Z M127.246,21.275 L107.32,21.259 L107.328,18.644 C107.328,18.644 109.348,18.408 110.17,18.3 C110.99,18.191 111.313,17.493 111.309,16.72 C111.307,15.947 111.319,7.027 111.319,6.122 C111.317,5.217 110.905,4.694 110.018,4.566 C109.131,4.439 107.299,4.255 107.299,4.255 L107.299,1.46 L127.246,1.46 C136.297,1.46 140.211,5.863 140.211,11.112 C140.211,16.939 136.297,21.275 127.246,21.275 Z M70.809,21.346 L70.809,18.629 C70.809,18.629 73.192,18.365 73.565,18.301 C74.464,18.143 74.788,17.545 74.787,16.608 L74.787,6.229 C74.787,5.217 74.342,4.656 73.377,4.549 C73.065,4.515 70.809,4.253 70.809,4.253 L70.809,1.457 C70.809,1.457 84.641,1.446 84.853,1.447 C85.605,1.451 86.12,1.811 86.516,2.318 C86.596,2.42 97.004,16.175 97.004,16.175 C97.004,16.175 97.008,7.28 97.004,6.342 C97.002,5.404 96.674,4.707 95.721,4.59 C95.424,4.553 93.026,4.272 93.026,4.272 L93.026,1.457 L105.756,1.457 L105.756,4.248 C105.756,4.248 103.524,4.489 103.059,4.562 C101.965,4.732 101.784,5.472 101.778,6.261 C101.774,7.051 101.778,21.347 101.778,21.347 L91.796,21.345 C91.134,21.345 90.476,21.044 90.118,20.585 C89.882,20.282 79.562,6.628 79.562,6.628 C79.562,6.628 79.557,15.835 79.562,16.747 C79.567,17.659 80.011,18.222 80.82,18.319 C81.628,18.417 83.54,18.63 83.54,18.63 L83.54,21.347 L70.809,21.347 L70.809,21.346 Z M0.512,21.342 L0.504,18.688 C0.504,18.688 2.132,18.497 3.139,18.374 C4.146,18.249 4.489,17.601 4.49,16.466 L4.49,6.372 C4.492,5.358 4.239,4.651 3.169,4.489 C2.796,4.432 0.513,4.179 0.513,4.179 L0.512,1.452 L16.424,1.452 L16.409,4.163 C16.409,4.163 14.036,4.43 13.722,4.476 C12.909,4.589 12.452,5.115 12.446,6.254 L12.446,9.408 L24.711,9.408 L24.711,6.324 C24.711,5.337 24.419,4.595 23.496,4.472 C22.573,4.349 20.726,4.139 20.726,4.139 L20.732,1.451 L36.644,1.451 L36.63,4.164 C36.63,4.164 34.73,4.387 33.891,4.491 C33.052,4.595 32.663,5.243 32.665,6.308 C32.666,6.495 32.659,15.521 32.665,16.662 C32.671,17.805 33.308,18.23 33.831,18.299 C34.355,18.365 36.65,18.623 36.65,18.623 L36.643,21.342 L20.733,21.342 L20.747,18.613 C20.747,18.613 23.17,18.345 23.479,18.285 C24.565,18.066 24.715,17.328 24.711,16.424 C24.707,15.52 24.711,13.385 24.711,13.385 L12.446,13.385 C12.446,13.385 12.437,15.231 12.446,16.571 C12.455,17.911 13.085,18.29 13.694,18.376 C14.464,18.476 16.422,18.692 16.422,18.692 L16.424,21.342 L0.512,21.342 Z M131.07,11.379 C131.07,6.376 129.047,5.262 124.199,5.262 L119.107,5.262 L119.107,17.4310007 L124.199,17.431 C129.047,17.432 131.07,16.428 131.07,11.379 Z M60.784,11.367 C60.784,6.208 58.204,4.512 53.69,4.512 C49.175,4.512 46.596,6.208 46.596,11.367 C46.596,16.594 49.176,18.258 53.69,18.258 C58.204,18.258 60.784,16.594 60.784,11.367 Z M151.373,21.35 L138.644,21.35 L138.644,18.635 C138.644,18.635 140.4,18.399 141.349,18.276 C142.298,18.153 142.677,17.397 142.785,17.225 C142.894,17.057 148.994,7.175 149.525,6.29 C150.056,5.405 149.496,4.729 148.8,4.605 C148.314,4.518 145.277,4.206 145.277,4.206 L145.275,1.456 L160.808,1.456 C161.781,1.483 162.38,2.576 162.38,2.576 L171.304,16.227 C172.027,17.327 172.575,18.135 173.458,18.266 C174.343,18.395 176.239,18.616 176.239,18.616 L176.251,21.346 L159.052,21.346 L159.068,18.649 C159.068,18.649 160.201,18.499 161.236,18.364 C162.273,18.229 163.144,17.78 162.285,16.518 C161.426,15.258 161.447,15.27 161.447,15.27 L149.256,15.297 C149.256,15.297 148.877,15.867 148.285,16.783 C147.695,17.697 148.318,18.275 149.193,18.383 L151.375,18.654 L151.373,21.35 Z M151.477,11.703 L159.155,11.742 L155.272,5.602 L151.477,11.703 Z" fill-color-id="0" stroke-color-id="-1" recolor-fill="true" recolor-stroke="true" fill="#FFFFFFFF"/>
        </g>
    </g>
</svg>